<?xml version="1.0" ?><svg viewBox="0 0 24 24" xmlns="http://www.w3.org/2000/svg"><title/><g id="Firefox"><path d="M16.79,1h0A11.83,11.83,0,0,0,12,0,12,12,0,0,0,3.33,3.73,4,4,0,0,1,3,2.5a.5.5,0,0,0-.86-.35A3.64,3.64,0,0,0,1.39,6.4,12,12,0,1,0,16.79,1ZM12,1a10.83,10.83,0,0,1,4.34.9c1.92,1.35,3.09,5,3.16,7.84a6.53,6.53,0,0,0-1.88-2.2.5.5,0,0,0-.7.7A5.5,5.5,0,0,1,12.5,17a4.11,4.11,0,0,1-1.64-.26,8.77,8.77,0,0,0,1.62-.88,4,4,0,0,1,2-.86.5.5,0,0,0,.49-.62A2,2,0,0,0,13,13a1.7,1.7,0,0,0-1.29.51c-.27.24-.55.49-1.71.49-2,0-3-1.19-3-2a1,1,0,0,1,.44-.74,4,4,0,0,1,.71-.4.5.5,0,0,0,.71,0A1.18,1.18,0,0,0,9.1,9.7l2.68-1.78A.5.5,0,0,0,11.5,7h-1c-1.11,0-1.84-.22-2-.59C8.27,5.85,9,4.68,9.85,3.85A.5.5,0,0,0,9.5,3,4.26,4.26,0,0,0,6.29,5,11.14,11.14,0,0,0,4,5a1.9,1.9,0,0,1-.23-.3A11,11,0,0,1,12,1Z" style="fill:#303c42"/></g></svg>